<svg width="256" height="256" viewBox="0 0 256 256" fill="none" xmlns="http://www.w3.org/2000/svg">
  <rect width="256" height="256" rx="64" fill="#020712"/>
  <path d="M128 200C128 200 128 152 128 120C128 96 122 80 110 66C98 52 80 44 64 44C64 60 70 78 82 92C98 110 116 116 128 116"
        stroke="#00FF99" stroke-width="10" stroke-linecap="round" stroke-linejoin="round"/>
  <path d="M128 200C128 200 128 156 128 124C128 100 134 84 146 70C158 56 176 48 192 48C192 64 186 82 174 96C158 114 140 120 128 120"
        stroke="#00FF99" stroke-width="10" stroke-linecap="round" stroke-linejoin="round"/>
  <path d="M104 200H152" stroke="#00FF99" stroke-width="10" stroke-linecap="round"/>
  <path d="M96 200C96 184 104 172 128 172C152 172 160 184 160 200" fill="#041915" stroke="#00FF99" stroke-width="6"/>
</svg>
